{"title":"Room 2015 720p BRRip x264 AC3 5.1 titler","uid":13573238,"size":1512474523,"categoryP":"video","categoryS":"hd___movies","magnet":"?xt=urn:btih:4aa7277d3e976a01702b3fc0aa21f3da1190ab63&amp;dn=Room+2015+720p+BRRip+x264+AC3+5.1+titler&amp;tr=udp%3A%2F%2Ftracker.leechers-paradise.org%3A6969&amp;tr=udp%3A%2F%2Fzer0day.ch%3A1337&amp;tr=udp%3A%2F%2Fopen.demonii.com%3A1337&amp;tr=udp%3A%2F%2Ftracker.coppersurfer.tk%3A6969&amp;tr=udp%3A%2F%2Fexodus.desync.com%3A6969","seeders":1,"leechers":0,"uploader":"movieZ.freak","files":5,"time":1455681526,"description":"SOURCE: Room 2015 720p BluRay x264 - SPARKS\r\n\r\n \nhttp://www.imdb.com/title/tt3170832/\r\n\r\n \nhttp://www.rottentomatoes.com/m/room_2015/\r\n\r\n \nhttps://en.wikipedia.org/wiki/Room_%282015_film%29\r\n\r\n\r\n\r\n- SAMPLE: Yes\r\n\r\n- SUBTITLE: English\r\n\r\n- LANGUAGE / AUDIO: English\r\n\r\n\r\n\r\nSCREENSHOTS:\r\n------------------- \nhttps://someimage.com/7ZHN\r\n\r\n\r\n\r\nDIRECTOR: Lenny Abrahamson\r\n\r\n\r\nCAST: Brie Larson, Jacob Tremblay, Joan Allen, William H. Macy, Sean Bridgers, ...\r\n\r\n\r\n\r\nPLOT:\r\n-----------\r\nBoth highly suspenseful and deeply emotional, ROOM is a unique and touching exploration of the boundless love between a mother and her child. After 5-year-old Jack (Jacob Tremblay) and his Ma (Brie Larson) escape from the enclosed surroundings that Jack has known his entire life, the boy makes a thrilling discovery: the outside world. As he experiences all the joy, excitement, and fear that this new adventure brings, he holds tight to the one thing that matters most of all--his special bond with his loving and devoted Ma.\r\n\r\n************************************\r\n\r\n- Duration: 1h 57mn\r\n\r\n- Nominal bit rate: 1261 Kbps\r\n\r\n- Res: 1280 x 536\r\n\r\n- AR: 2.40:1\r\n\r\n- FPS: 23.976 fps\r\n\r\n- Audio: AC3, 6 channels, 448Kbps\r\n\r\n************************************\r\n\r\n\r\nGeneral\r\n-------------\r\nFormat : Matroska\r\nFormat version : Version 4 / Version 2\r\nFile size : 1.39 GiB\r\nDuration : 1h 57mn\r\nOverall bit rate : 1697 Kbps\r\nEncoded date : UTC 2016-02-17 02:08:32\r\nWriting application : mkvmerge v8.8.0 ('Wind at my back') 64bit\r\nWriting library : libebml v1.3.3 + libmatroska v1.4.4\r\n\r\n\r\nVideo\r\n-----------\r\nFormat : AVC\r\nFormat/Info : Advanced Video Codec\r\nFormat profile :   \r\nFormat settings, CABAC : Yes\r\nFormat settings, ReFrames : 5 frames\r\nCodec ID : V_MPEG4/ISO/AVC\r\nDuration : 1h 57mn\r\nBit rate : 1261 Kbps\r\nWidth : 1280 pixels\r\nHeight : 536 pixels\r\nDisplay aspect ratio : 2.40:1\r\nFrame rate mode : Constant\r\nFrame rate : 23.976 fps\r\nColor space : YUV\r\nChroma subsampling : 4:2:0\r\nBit depth : 8 bits\r\nScan type : Progressive\r\nBits/(Pixel*Frame) : 0.077\r\nStream size : 1 023 MiB (72%)\r\nWriting library : x264 core 142\r\nEncoding settings : cabac=1 / ref=5\r\nDefault : Yes\r\nForced : No\r\n\r\n\r\nAudio\r\n----------\r\nFormat : AC-3\r\nFormat/Info : Audio Coding 3\r\nMode extension : CM (complete main)\r\nFormat settings, Endianness : Big\r\nCodec ID : A_AC3\r\nDuration : 1h 57mn\r\nBit rate mode : Constant\r\nBit rate : 448 Kbps\r\nChannel(s) : 6 channels\r\nChannel positions : Front: L C R, Side: L R, LFE\r\nSampling rate : 48.0 KHz\r\nCompression mode : Lossy\r\nStream size : 377 MiB (26%)\r\nTitle : Surround\r\nLanguage : English\r\nDefault : Yes\r\nForced : No","torrent":{"xt":"urn:btih:4aa7277d3e976a01702b3fc0aa21f3da1190ab63","amp;dn":"Room+2015+720p+BRRip+x264+AC3+5.1+titler","amp;tr":["udp%3A%2F%2Ftracker.leechers-paradise.org%3A6969","udp%3A%2F%2Fzer0day.ch%3A1337","udp%3A%2F%2Fopen.demonii.com%3A1337","udp%3A%2F%2Ftracker.coppersurfer.tk%3A6969","udp%3A%2F%2Fexodus.desync.com%3A6969"],"infoHash":"4aa7277d3e976a01702b3fc0aa21f3da1190ab63","infoHashBuffer":{"type":"Buffer","data":[74,167,39,125,62,151,106,1,112,43,63,192,170,33,243,218,17,144,171,99]},"announce":[],"urlList":[]}}